<mxfile host="app.diagrams.net" agent="Mozilla/5.0 (Windows NT 10.0; Win64; x64) AppleWebKit/537.36 (KHTML, like Gecko) Chrome/137.0.0.0 Safari/537.36" version="27.2.0">
  <diagram name="PÃ¡gina-1" id="ENRQjQ2MEZYB77YcNae1">
    <mxGraphModel dx="2253" dy="1912" grid="1" gridSize="10" guides="1" tooltips="1" connect="1" arrows="1" fold="1" page="1" pageScale="1" pageWidth="827" pageHeight="1169" math="0" shadow="0">
      <root>
        <mxCell id="0" />
        <mxCell id="1" parent="0" />
        <mxCell id="XIWKyDKtCgvxdbFmIk-G-2" value="" style="endArrow=none;html=1;rounded=0;fillColor=#f8cecc;strokeColor=#b85450;strokeWidth=2;" parent="1" edge="1">
          <mxGeometry width="50" height="50" relative="1" as="geometry">
            <mxPoint x="80" y="1170" as="sourcePoint" />
            <mxPoint x="80" y="20" as="targetPoint" />
          </mxGeometry>
        </mxCell>
        <mxCell id="XIWKyDKtCgvxdbFmIk-G-3" value="" style="endArrow=none;html=1;rounded=0;fillColor=#f8cecc;strokeColor=#b85450;strokeWidth=2;" parent="1" edge="1">
          <mxGeometry width="50" height="50" relative="1" as="geometry">
            <mxPoint x="160" y="1170" as="sourcePoint" />
            <mxPoint x="160" y="20" as="targetPoint" />
          </mxGeometry>
        </mxCell>
        <mxCell id="XIWKyDKtCgvxdbFmIk-G-4" value="" style="endArrow=none;html=1;rounded=0;fillColor=#f8cecc;strokeColor=#b85450;strokeWidth=2;" parent="1" edge="1">
          <mxGeometry width="50" height="50" relative="1" as="geometry">
            <mxPoint x="240" y="1170" as="sourcePoint" />
            <mxPoint x="240" y="20" as="targetPoint" />
          </mxGeometry>
        </mxCell>
        <mxCell id="XIWKyDKtCgvxdbFmIk-G-5" value="" style="endArrow=none;html=1;rounded=0;fillColor=#f8cecc;strokeColor=#b85450;strokeWidth=2;" parent="1" edge="1">
          <mxGeometry width="50" height="50" relative="1" as="geometry">
            <mxPoint x="320" y="1169" as="sourcePoint" />
            <mxPoint x="320" y="19" as="targetPoint" />
          </mxGeometry>
        </mxCell>
        <mxCell id="XIWKyDKtCgvxdbFmIk-G-6" value="" style="endArrow=none;html=1;rounded=0;fillColor=#f8cecc;strokeColor=#b85450;strokeWidth=2;" parent="1" edge="1">
          <mxGeometry width="50" height="50" relative="1" as="geometry">
            <mxPoint x="400" y="1169" as="sourcePoint" />
            <mxPoint x="400" y="19" as="targetPoint" />
          </mxGeometry>
        </mxCell>
        <mxCell id="XIWKyDKtCgvxdbFmIk-G-7" value="" style="endArrow=none;html=1;rounded=0;fillColor=#f8cecc;strokeColor=#b85450;strokeWidth=2;" parent="1" edge="1">
          <mxGeometry width="50" height="50" relative="1" as="geometry">
            <mxPoint x="480" y="1169" as="sourcePoint" />
            <mxPoint x="480" y="19" as="targetPoint" />
          </mxGeometry>
        </mxCell>
        <mxCell id="XIWKyDKtCgvxdbFmIk-G-8" value="" style="endArrow=none;html=1;rounded=0;fillColor=#f8cecc;strokeColor=#b85450;strokeWidth=2;" parent="1" edge="1">
          <mxGeometry width="50" height="50" relative="1" as="geometry">
            <mxPoint x="560" y="1169" as="sourcePoint" />
            <mxPoint x="560" y="19" as="targetPoint" />
          </mxGeometry>
        </mxCell>
        <mxCell id="XIWKyDKtCgvxdbFmIk-G-9" value="" style="endArrow=none;html=1;rounded=0;fillColor=#f8cecc;strokeColor=#b85450;strokeWidth=2;" parent="1" edge="1">
          <mxGeometry width="50" height="50" relative="1" as="geometry">
            <mxPoint x="640" y="1169" as="sourcePoint" />
            <mxPoint x="640" y="19" as="targetPoint" />
          </mxGeometry>
        </mxCell>
        <mxCell id="XIWKyDKtCgvxdbFmIk-G-10" value="" style="endArrow=none;html=1;rounded=0;fillColor=#f8cecc;strokeColor=#b85450;strokeWidth=2;" parent="1" edge="1">
          <mxGeometry width="50" height="50" relative="1" as="geometry">
            <mxPoint x="800" y="1169" as="sourcePoint" />
            <mxPoint x="800" y="19" as="targetPoint" />
          </mxGeometry>
        </mxCell>
        <mxCell id="XIWKyDKtCgvxdbFmIk-G-11" value="" style="endArrow=none;html=1;rounded=0;fillColor=#f8cecc;strokeColor=#b85450;strokeWidth=2;" parent="1" edge="1">
          <mxGeometry width="50" height="50" relative="1" as="geometry">
            <mxPoint x="720" y="1169" as="sourcePoint" />
            <mxPoint x="720" y="19" as="targetPoint" />
          </mxGeometry>
        </mxCell>
        <mxCell id="XIWKyDKtCgvxdbFmIk-G-12" value="" style="endArrow=none;html=1;rounded=0;fillColor=#f8cecc;strokeColor=#b85450;strokeWidth=2;" parent="1" edge="1">
          <mxGeometry width="50" height="50" relative="1" as="geometry">
            <mxPoint x="880" y="1169" as="sourcePoint" />
            <mxPoint x="880" y="19" as="targetPoint" />
          </mxGeometry>
        </mxCell>
        <mxCell id="XIWKyDKtCgvxdbFmIk-G-13" value="" style="endArrow=none;html=1;rounded=0;fillColor=#f8cecc;strokeColor=#b85450;strokeWidth=2;" parent="1" edge="1">
          <mxGeometry width="50" height="50" relative="1" as="geometry">
            <mxPoint x="960" y="1169" as="sourcePoint" />
            <mxPoint x="960" y="19" as="targetPoint" />
          </mxGeometry>
        </mxCell>
        <mxCell id="XIWKyDKtCgvxdbFmIk-G-14" value="" style="endArrow=none;html=1;rounded=0;fillColor=#f8cecc;strokeColor=#b85450;strokeWidth=2;" parent="1" edge="1">
          <mxGeometry width="50" height="50" relative="1" as="geometry">
            <mxPoint y="1169" as="sourcePoint" />
            <mxPoint y="19" as="targetPoint" />
          </mxGeometry>
        </mxCell>
        <mxCell id="XIWKyDKtCgvxdbFmIk-G-15" value="1" style="whiteSpace=wrap;html=1;aspect=fixed;fontSize=31;" parent="1" vertex="1">
          <mxGeometry y="-80" width="80" height="80" as="geometry" />
        </mxCell>
        <mxCell id="XIWKyDKtCgvxdbFmIk-G-16" value="2" style="whiteSpace=wrap;html=1;aspect=fixed;fontSize=31;" parent="1" vertex="1">
          <mxGeometry x="80" y="-80" width="80" height="80" as="geometry" />
        </mxCell>
        <mxCell id="XIWKyDKtCgvxdbFmIk-G-17" value="3" style="whiteSpace=wrap;html=1;aspect=fixed;fontSize=31;" parent="1" vertex="1">
          <mxGeometry x="160" y="-80" width="80" height="80" as="geometry" />
        </mxCell>
        <mxCell id="XIWKyDKtCgvxdbFmIk-G-18" value="1" style="whiteSpace=wrap;html=1;aspect=fixed;fontSize=31;" parent="1" vertex="1">
          <mxGeometry x="240" y="-80" width="80" height="80" as="geometry" />
        </mxCell>
        <mxCell id="XIWKyDKtCgvxdbFmIk-G-19" value="4" style="whiteSpace=wrap;html=1;aspect=fixed;fontSize=31;" parent="1" vertex="1">
          <mxGeometry x="240" y="-80" width="80" height="80" as="geometry" />
        </mxCell>
        <mxCell id="XIWKyDKtCgvxdbFmIk-G-20" value="1" style="whiteSpace=wrap;html=1;aspect=fixed;fontSize=31;" parent="1" vertex="1">
          <mxGeometry x="320" y="-80" width="80" height="80" as="geometry" />
        </mxCell>
        <mxCell id="XIWKyDKtCgvxdbFmIk-G-21" value="5" style="whiteSpace=wrap;html=1;aspect=fixed;fontSize=31;" parent="1" vertex="1">
          <mxGeometry x="320" y="-80" width="80" height="80" as="geometry" />
        </mxCell>
        <mxCell id="XIWKyDKtCgvxdbFmIk-G-22" value="1" style="whiteSpace=wrap;html=1;aspect=fixed;fontSize=31;" parent="1" vertex="1">
          <mxGeometry x="400" y="-80" width="80" height="80" as="geometry" />
        </mxCell>
        <mxCell id="XIWKyDKtCgvxdbFmIk-G-23" value="6" style="whiteSpace=wrap;html=1;aspect=fixed;fontSize=31;" parent="1" vertex="1">
          <mxGeometry x="400" y="-80" width="80" height="80" as="geometry" />
        </mxCell>
        <mxCell id="XIWKyDKtCgvxdbFmIk-G-24" value="1" style="whiteSpace=wrap;html=1;aspect=fixed;fontSize=31;" parent="1" vertex="1">
          <mxGeometry x="480" y="-80" width="80" height="80" as="geometry" />
        </mxCell>
        <mxCell id="XIWKyDKtCgvxdbFmIk-G-25" value="7" style="whiteSpace=wrap;html=1;aspect=fixed;fontSize=31;" parent="1" vertex="1">
          <mxGeometry x="480" y="-80" width="80" height="80" as="geometry" />
        </mxCell>
        <mxCell id="XIWKyDKtCgvxdbFmIk-G-26" value="8" style="whiteSpace=wrap;html=1;aspect=fixed;fontSize=31;" parent="1" vertex="1">
          <mxGeometry x="560" y="-80" width="80" height="80" as="geometry" />
        </mxCell>
        <mxCell id="XIWKyDKtCgvxdbFmIk-G-27" value="12" style="whiteSpace=wrap;html=1;aspect=fixed;fontSize=31;" parent="1" vertex="1">
          <mxGeometry x="880" y="-80" width="80" height="80" as="geometry" />
        </mxCell>
        <mxCell id="XIWKyDKtCgvxdbFmIk-G-28" value="9" style="whiteSpace=wrap;html=1;aspect=fixed;fontSize=31;" parent="1" vertex="1">
          <mxGeometry x="640" y="-80" width="80" height="80" as="geometry" />
        </mxCell>
        <mxCell id="XIWKyDKtCgvxdbFmIk-G-29" value="11" style="whiteSpace=wrap;html=1;aspect=fixed;fontSize=31;" parent="1" vertex="1">
          <mxGeometry x="800" y="-80" width="80" height="80" as="geometry" />
        </mxCell>
        <mxCell id="XIWKyDKtCgvxdbFmIk-G-30" value="10" style="whiteSpace=wrap;html=1;aspect=fixed;fontSize=31;" parent="1" vertex="1">
          <mxGeometry x="720" y="-80" width="80" height="80" as="geometry" />
        </mxCell>
        <mxCell id="3k1eIwczihZMJi6EnhSV-4" value="" style="rounded=0;whiteSpace=wrap;html=1;" vertex="1" parent="1">
          <mxGeometry x="240" y="70" width="720" height="1070" as="geometry" />
        </mxCell>
        <mxCell id="3k1eIwczihZMJi6EnhSV-5" value="" style="rounded=0;whiteSpace=wrap;html=1;" vertex="1" parent="1">
          <mxGeometry x="320" y="160" width="560" height="230" as="geometry" />
        </mxCell>
        <mxCell id="3k1eIwczihZMJi6EnhSV-6" value="Projects" style="text;html=1;align=center;verticalAlign=middle;whiteSpace=wrap;rounded=0;fontSize=24;" vertex="1" parent="1">
          <mxGeometry x="290" y="90" width="100" height="30" as="geometry" />
        </mxCell>
        <mxCell id="3k1eIwczihZMJi6EnhSV-7" value="" style="sketch=0;outlineConnect=0;fontColor=#232F3E;gradientColor=none;fillColor=#ED7100;strokeColor=none;dashed=0;verticalLabelPosition=bottom;verticalAlign=top;align=center;html=1;fontSize=12;fontStyle=0;aspect=fixed;pointerEvents=1;shape=mxgraph.aws4.container_registry_image;" vertex="1" parent="1">
          <mxGeometry x="340" y="180" width="140" height="140" as="geometry" />
        </mxCell>
        <mxCell id="3k1eIwczihZMJi6EnhSV-8" value="Main skills badges&lt;div&gt;Secondary Skills Badges&lt;/div&gt;" style="rounded=0;whiteSpace=wrap;html=1;align=left;" vertex="1" parent="1">
          <mxGeometry x="500" y="330" width="360" height="50" as="geometry" />
        </mxCell>
        <mxCell id="3k1eIwczihZMJi6EnhSV-9" value="PROJECT TITLE" style="rounded=0;whiteSpace=wrap;html=1;" vertex="1" parent="1">
          <mxGeometry x="500" y="180" width="360" height="30" as="geometry" />
        </mxCell>
        <mxCell id="3k1eIwczihZMJi6EnhSV-10" value="&lt;br&gt;&lt;span style=&quot;color: rgb(0, 0, 0); font-family: &amp;quot;Open Sans&amp;quot;, Arial, sans-serif; font-style: normal; font-variant-ligatures: normal; font-variant-caps: normal; font-weight: 400; letter-spacing: normal; orphans: 2; text-align: justify; text-indent: 0px; text-transform: none; widows: 2; word-spacing: 0px; -webkit-text-stroke-width: 0px; white-space: normal; background-color: rgb(255, 255, 255); text-decoration-thickness: initial; text-decoration-style: initial; text-decoration-color: initial; float: none; display: inline !important;&quot;&gt;Lorem ipsum dolor sit amet, consectetur adipiscing elit, sed do eiusmod tempor incididunt ut labore et dolore magna aliqua. Ut enim ad minim veniam, quis nostrud exercitation ullamco laboris nisi ut aliquip ex ea commodo consequat. Duis aute irure dolor in reprehenderit in voluptate velit esse cillum dolore eu fugiat nulla pariatur.&amp;nbsp;&lt;/span&gt;&lt;div&gt;&lt;br&gt;&lt;/div&gt;" style="rounded=0;whiteSpace=wrap;html=1;align=left;fontSize=9;" vertex="1" parent="1">
          <mxGeometry x="500" y="210" width="360" height="70" as="geometry" />
        </mxCell>
        <mxCell id="3k1eIwczihZMJi6EnhSV-11" value="Role badge/s" style="rounded=0;whiteSpace=wrap;html=1;align=left;" vertex="1" parent="1">
          <mxGeometry x="500" y="290" width="360" height="30" as="geometry" />
        </mxCell>
        <mxCell id="3k1eIwczihZMJi6EnhSV-12" value="Repos and demos Buttons" style="rounded=0;whiteSpace=wrap;html=1;" vertex="1" parent="1">
          <mxGeometry x="340" y="330" width="140" height="50" as="geometry" />
        </mxCell>
        <mxCell id="3k1eIwczihZMJi6EnhSV-13" value="" style="rounded=0;whiteSpace=wrap;html=1;" vertex="1" parent="1">
          <mxGeometry x="320" y="410" width="270" height="230" as="geometry" />
        </mxCell>
        <mxCell id="3k1eIwczihZMJi6EnhSV-15" value="" style="sketch=0;outlineConnect=0;fontColor=#232F3E;gradientColor=none;fillColor=#ED7100;strokeColor=none;dashed=0;verticalLabelPosition=bottom;verticalAlign=top;align=center;html=1;fontSize=12;fontStyle=0;aspect=fixed;pointerEvents=1;shape=mxgraph.aws4.container_registry_image;" vertex="1" parent="1">
          <mxGeometry x="340" y="430" width="90" height="90" as="geometry" />
        </mxCell>
        <mxCell id="3k1eIwczihZMJi6EnhSV-16" value="PROJECT TITLE" style="rounded=0;whiteSpace=wrap;html=1;" vertex="1" parent="1">
          <mxGeometry x="440" y="430" width="130" height="30" as="geometry" />
        </mxCell>
        <mxCell id="3k1eIwczihZMJi6EnhSV-17" value="&lt;br&gt;&lt;span style=&quot;color: rgb(0, 0, 0); font-family: &amp;quot;Open Sans&amp;quot;, Arial, sans-serif; font-style: normal; font-variant-ligatures: normal; font-variant-caps: normal; font-weight: 400; letter-spacing: normal; orphans: 2; text-align: justify; text-indent: 0px; text-transform: none; widows: 2; word-spacing: 0px; -webkit-text-stroke-width: 0px; white-space: normal; background-color: rgb(255, 255, 255); text-decoration-thickness: initial; text-decoration-style: initial; text-decoration-color: initial; float: none; display: inline !important;&quot;&gt;Lorem ipsum dolor sit amet, consectetur adipiscing elit, sed do eiusmod tempor incididunt ut labore et dolore magna aliqua.&amp;nbsp;&lt;/span&gt;&lt;div&gt;&lt;br&gt;&lt;/div&gt;" style="rounded=0;whiteSpace=wrap;html=1;align=left;fontSize=9;" vertex="1" parent="1">
          <mxGeometry x="440" y="460" width="130" height="110" as="geometry" />
        </mxCell>
        <mxCell id="3k1eIwczihZMJi6EnhSV-18" value="Repos and demos Buttons" style="rounded=0;whiteSpace=wrap;html=1;" vertex="1" parent="1">
          <mxGeometry x="340" y="530" width="90" height="40" as="geometry" />
        </mxCell>
        <mxCell id="3k1eIwczihZMJi6EnhSV-19" value="Role badge/s" style="rounded=0;whiteSpace=wrap;html=1;align=left;" vertex="1" parent="1">
          <mxGeometry x="340" y="580" width="90" height="50" as="geometry" />
        </mxCell>
        <mxCell id="3k1eIwczihZMJi6EnhSV-20" value="Main skills badges&lt;div&gt;Secondary Skills Badges&lt;/div&gt;" style="rounded=0;whiteSpace=wrap;html=1;align=left;" vertex="1" parent="1">
          <mxGeometry x="440" y="580" width="130" height="50" as="geometry" />
        </mxCell>
        <mxCell id="3k1eIwczihZMJi6EnhSV-21" value="" style="rounded=0;whiteSpace=wrap;html=1;" vertex="1" parent="1">
          <mxGeometry x="610" y="410" width="270" height="230" as="geometry" />
        </mxCell>
        <mxCell id="3k1eIwczihZMJi6EnhSV-22" value="" style="sketch=0;outlineConnect=0;fontColor=#232F3E;gradientColor=none;fillColor=#ED7100;strokeColor=none;dashed=0;verticalLabelPosition=bottom;verticalAlign=top;align=center;html=1;fontSize=12;fontStyle=0;aspect=fixed;pointerEvents=1;shape=mxgraph.aws4.container_registry_image;" vertex="1" parent="1">
          <mxGeometry x="630" y="430" width="90" height="90" as="geometry" />
        </mxCell>
        <mxCell id="3k1eIwczihZMJi6EnhSV-23" value="PROJECT TITLE" style="rounded=0;whiteSpace=wrap;html=1;" vertex="1" parent="1">
          <mxGeometry x="730" y="430" width="130" height="30" as="geometry" />
        </mxCell>
        <mxCell id="3k1eIwczihZMJi6EnhSV-24" value="&lt;br&gt;&lt;span style=&quot;color: rgb(0, 0, 0); font-family: &amp;quot;Open Sans&amp;quot;, Arial, sans-serif; font-style: normal; font-variant-ligatures: normal; font-variant-caps: normal; font-weight: 400; letter-spacing: normal; orphans: 2; text-align: justify; text-indent: 0px; text-transform: none; widows: 2; word-spacing: 0px; -webkit-text-stroke-width: 0px; white-space: normal; background-color: rgb(255, 255, 255); text-decoration-thickness: initial; text-decoration-style: initial; text-decoration-color: initial; float: none; display: inline !important;&quot;&gt;Lorem ipsum dolor sit amet, consectetur adipiscing elit, sed do eiusmod tempor incididunt ut labore et dolore magna aliqua.&amp;nbsp;&lt;/span&gt;&lt;div&gt;&lt;br&gt;&lt;/div&gt;" style="rounded=0;whiteSpace=wrap;html=1;align=left;fontSize=9;" vertex="1" parent="1">
          <mxGeometry x="730" y="460" width="130" height="110" as="geometry" />
        </mxCell>
        <mxCell id="3k1eIwczihZMJi6EnhSV-25" value="Repos and demos Buttons" style="rounded=0;whiteSpace=wrap;html=1;" vertex="1" parent="1">
          <mxGeometry x="630" y="530" width="90" height="40" as="geometry" />
        </mxCell>
        <mxCell id="3k1eIwczihZMJi6EnhSV-26" value="Role badge/s" style="rounded=0;whiteSpace=wrap;html=1;align=left;" vertex="1" parent="1">
          <mxGeometry x="630" y="580" width="90" height="50" as="geometry" />
        </mxCell>
        <mxCell id="3k1eIwczihZMJi6EnhSV-27" value="Main skills badges&lt;div&gt;Secondary Skills Badges&lt;/div&gt;" style="rounded=0;whiteSpace=wrap;html=1;align=left;" vertex="1" parent="1">
          <mxGeometry x="730" y="580" width="130" height="50" as="geometry" />
        </mxCell>
        <mxCell id="3k1eIwczihZMJi6EnhSV-28" value="" style="rounded=0;whiteSpace=wrap;html=1;" vertex="1" parent="1">
          <mxGeometry x="320" y="660" width="270" height="230" as="geometry" />
        </mxCell>
        <mxCell id="3k1eIwczihZMJi6EnhSV-29" value="" style="sketch=0;outlineConnect=0;fontColor=#232F3E;gradientColor=none;fillColor=#ED7100;strokeColor=none;dashed=0;verticalLabelPosition=bottom;verticalAlign=top;align=center;html=1;fontSize=12;fontStyle=0;aspect=fixed;pointerEvents=1;shape=mxgraph.aws4.container_registry_image;" vertex="1" parent="1">
          <mxGeometry x="340" y="680" width="90" height="90" as="geometry" />
        </mxCell>
        <mxCell id="3k1eIwczihZMJi6EnhSV-30" value="PROJECT TITLE" style="rounded=0;whiteSpace=wrap;html=1;" vertex="1" parent="1">
          <mxGeometry x="440" y="680" width="130" height="30" as="geometry" />
        </mxCell>
        <mxCell id="3k1eIwczihZMJi6EnhSV-31" value="&lt;br&gt;&lt;span style=&quot;color: rgb(0, 0, 0); font-family: &amp;quot;Open Sans&amp;quot;, Arial, sans-serif; font-style: normal; font-variant-ligatures: normal; font-variant-caps: normal; font-weight: 400; letter-spacing: normal; orphans: 2; text-align: justify; text-indent: 0px; text-transform: none; widows: 2; word-spacing: 0px; -webkit-text-stroke-width: 0px; white-space: normal; background-color: rgb(255, 255, 255); text-decoration-thickness: initial; text-decoration-style: initial; text-decoration-color: initial; float: none; display: inline !important;&quot;&gt;Lorem ipsum dolor sit amet, consectetur adipiscing elit, sed do eiusmod tempor incididunt ut labore et dolore magna aliqua.&amp;nbsp;&lt;/span&gt;&lt;div&gt;&lt;br&gt;&lt;/div&gt;" style="rounded=0;whiteSpace=wrap;html=1;align=left;fontSize=9;" vertex="1" parent="1">
          <mxGeometry x="440" y="710" width="130" height="110" as="geometry" />
        </mxCell>
        <mxCell id="3k1eIwczihZMJi6EnhSV-32" value="Repos and demos Buttons" style="rounded=0;whiteSpace=wrap;html=1;" vertex="1" parent="1">
          <mxGeometry x="340" y="780" width="90" height="40" as="geometry" />
        </mxCell>
        <mxCell id="3k1eIwczihZMJi6EnhSV-33" value="Role badge/s" style="rounded=0;whiteSpace=wrap;html=1;align=left;" vertex="1" parent="1">
          <mxGeometry x="340" y="830" width="90" height="50" as="geometry" />
        </mxCell>
        <mxCell id="3k1eIwczihZMJi6EnhSV-34" value="Main skills badges&lt;div&gt;Secondary Skills Badges&lt;/div&gt;" style="rounded=0;whiteSpace=wrap;html=1;align=left;" vertex="1" parent="1">
          <mxGeometry x="440" y="830" width="130" height="50" as="geometry" />
        </mxCell>
        <mxCell id="3k1eIwczihZMJi6EnhSV-35" value="" style="rounded=0;whiteSpace=wrap;html=1;" vertex="1" parent="1">
          <mxGeometry x="610" y="660" width="270" height="230" as="geometry" />
        </mxCell>
        <mxCell id="3k1eIwczihZMJi6EnhSV-36" value="" style="sketch=0;outlineConnect=0;fontColor=#232F3E;gradientColor=none;fillColor=#ED7100;strokeColor=none;dashed=0;verticalLabelPosition=bottom;verticalAlign=top;align=center;html=1;fontSize=12;fontStyle=0;aspect=fixed;pointerEvents=1;shape=mxgraph.aws4.container_registry_image;" vertex="1" parent="1">
          <mxGeometry x="630" y="680" width="90" height="90" as="geometry" />
        </mxCell>
        <mxCell id="3k1eIwczihZMJi6EnhSV-37" value="PROJECT TITLE" style="rounded=0;whiteSpace=wrap;html=1;" vertex="1" parent="1">
          <mxGeometry x="730" y="680" width="130" height="30" as="geometry" />
        </mxCell>
        <mxCell id="3k1eIwczihZMJi6EnhSV-38" value="&lt;br&gt;&lt;span style=&quot;color: rgb(0, 0, 0); font-family: &amp;quot;Open Sans&amp;quot;, Arial, sans-serif; font-style: normal; font-variant-ligatures: normal; font-variant-caps: normal; font-weight: 400; letter-spacing: normal; orphans: 2; text-align: justify; text-indent: 0px; text-transform: none; widows: 2; word-spacing: 0px; -webkit-text-stroke-width: 0px; white-space: normal; background-color: rgb(255, 255, 255); text-decoration-thickness: initial; text-decoration-style: initial; text-decoration-color: initial; float: none; display: inline !important;&quot;&gt;Lorem ipsum dolor sit amet, consectetur adipiscing elit, sed do eiusmod tempor incididunt ut labore et dolore magna aliqua.&amp;nbsp;&lt;/span&gt;&lt;div&gt;&lt;br&gt;&lt;/div&gt;" style="rounded=0;whiteSpace=wrap;html=1;align=left;fontSize=9;" vertex="1" parent="1">
          <mxGeometry x="730" y="710" width="130" height="110" as="geometry" />
        </mxCell>
        <mxCell id="3k1eIwczihZMJi6EnhSV-39" value="Repos and demos Buttons" style="rounded=0;whiteSpace=wrap;html=1;" vertex="1" parent="1">
          <mxGeometry x="630" y="780" width="90" height="40" as="geometry" />
        </mxCell>
        <mxCell id="3k1eIwczihZMJi6EnhSV-40" value="Role badge/s" style="rounded=0;whiteSpace=wrap;html=1;align=left;" vertex="1" parent="1">
          <mxGeometry x="630" y="830" width="90" height="50" as="geometry" />
        </mxCell>
        <mxCell id="3k1eIwczihZMJi6EnhSV-41" value="Main skills badges&lt;div&gt;Secondary Skills Badges&lt;/div&gt;" style="rounded=0;whiteSpace=wrap;html=1;align=left;" vertex="1" parent="1">
          <mxGeometry x="730" y="830" width="130" height="50" as="geometry" />
        </mxCell>
      </root>
    </mxGraphModel>
  </diagram>
</mxfile>
